<mxfile host="65bd71144e">
    <diagram id="BvHvUv1Ko37je3fJiObZ" name="PÃ¡gina-1">
        <mxGraphModel dx="872" dy="661" grid="1" gridSize="10" guides="1" tooltips="1" connect="1" arrows="1" fold="1" page="1" pageScale="1" pageWidth="850" pageHeight="1100" background="#121212" math="0" shadow="0">
            <root>
                <mxCell id="0"/>
                <mxCell id="1" parent="0"/>
                <mxCell id="278" style="edgeStyle=orthogonalEdgeStyle;rounded=0;html=1;labelBackgroundColor=none;labelBorderColor=none;strokeColor=#FFFFFF;sketch=1;curveFitting=1;jiggle=2;" parent="1" edge="1">
                    <mxGeometry relative="1" as="geometry">
                        <mxPoint x="615" y="560" as="sourcePoint"/>
                        <mxPoint x="580" y="700" as="targetPoint"/>
                        <Array as="points">
                            <mxPoint x="615" y="680"/>
                            <mxPoint x="580" y="680"/>
                        </Array>
                    </mxGeometry>
                </mxCell>
                <mxCell id="196" value="" style="edgeStyle=orthogonalEdgeStyle;html=1;strokeWidth=1;labelBackgroundColor=none;strokeColor=#FFFFFF;labelBorderColor=none;rounded=0;sketch=1;curveFitting=1;jiggle=2;" parent="1" source="25" edge="1">
                    <mxGeometry relative="1" as="geometry">
                        <mxPoint x="286" y="220" as="sourcePoint"/>
                        <mxPoint x="280" y="270" as="targetPoint"/>
                    </mxGeometry>
                </mxCell>
                <mxCell id="298" value="Provisionamento&lt;br style=&quot;font-size: 14px;&quot;&gt;da infraestrutura" style="edgeLabel;html=1;align=center;verticalAlign=middle;resizable=0;points=[];fontSize=14;fontFamily=Circular Std;fontColor=#FFFFFF;labelBackgroundColor=#121212;" parent="196" vertex="1" connectable="0">
                    <mxGeometry x="0.199" y="-1" relative="1" as="geometry">
                        <mxPoint x="1" y="-12" as="offset"/>
                    </mxGeometry>
                </mxCell>
                <mxCell id="25" value="" style="shape=image;verticalLabelPosition=bottom;verticalAlign=top;imageAspect=0;aspect=fixed;image=data:image/svg+xml,PHN2ZyB4bWxucz0iaHR0cDovL3d3dy53My5vcmcvMjAwMC9zdmciIHZpZXdCb3g9IjAgMCAxMjggMTI4Ij48ZyBmaWxsLXJ1bGU9ImV2ZW5vZGQiPjxwYXRoIGZpbGw9IiM1YzRlZTUiIGQ9Ik03Ny45NDEgNDQuNXYzNi44MzZMNDYuMzI0IDYyLjkxOFYyNi4wODJ6bTAgMCIvPjxwYXRoIGZpbGw9IiM0MDQwYjIiIGQ9Ik04MS40MSA4MS4zMzZsMzEuNjMzLTE4LjQxOFYyNi4wODJMODEuNDEgNDQuNXptMCAwIi8+PHBhdGggZmlsbD0iIzVjNGVlNSIgZD0iTTExLjI0MiA0Mi4zNkw0Mi44NiA2MC43NzZWMjMuOTQxTDExLjI0MiA1LjUyM3ptMCAwTTc3Ljk0MSA4NS4zNzVMNDYuMzI0IDY2Ljk1N3YzNi44MmwzMS42MTcgMTguNDE4em0wIDAiLz48L2c+PC9zdmc+;fontFamily=Circular Std;fontSize=20;rounded=0;" parent="1" vertex="1">
                    <mxGeometry x="215" y="50" width="130" height="130" as="geometry"/>
                </mxCell>
                <mxCell id="137" style="edgeStyle=none;html=1;strokeWidth=1;startArrow=none;startFill=0;rounded=0;strokeColor=#FFFFFF;sketch=1;curveFitting=1;jiggle=2;" parent="1" edge="1">
                    <mxGeometry relative="1" as="geometry">
                        <mxPoint x="280" y="400" as="sourcePoint"/>
                        <mxPoint x="280" y="430" as="targetPoint"/>
                    </mxGeometry>
                </mxCell>
                <mxCell id="29" value="Amazon Web Services" style="shape=image;verticalLabelPosition=bottom;verticalAlign=top;imageAspect=0;aspect=fixed;image=data:image/svg+xml,PHN2ZyB4bWxuczp4bGluaz0iaHR0cDovL3d3dy53My5vcmcvMTk5OS94bGluayIgeG1sbnM9Imh0dHA6Ly93d3cudzMub3JnLzIwMDAvc3ZnIiB2ZXJzaW9uPSIxLjEiIGZpbGw9Im5vbmUiIHZpZXdCb3g9IjAgMCAyNTYgMjU2IiBoZWlnaHQ9IjQ4IiB3aWR0aD0iNDgiPgogICAgCiAgICAgICAgPGcgdHJhbnNmb3JtPSJ0cmFuc2xhdGUoMCwgMCkiPgogICAgICAgICAgPHN2ZyB4bWxucz0iaHR0cDovL3d3dy53My5vcmcvMjAwMC9zdmciIHZpZXdCb3g9IjAgMCAyNTYgMjU2IiBmaWxsPSJub25lIiBoZWlnaHQ9IjI1NiIgd2lkdGg9IjI1NiI+PHJlY3Qgcng9IjYwIiBmaWxsPSIjMjQyOTM4IiBoZWlnaHQ9IjI1NiIgd2lkdGg9IjI1NiIvPjxwYXRoIGQ9Ik04NC43NDQ3IDExMS45NjFDODQuNzQ0NyAxMTQuMzk1IDg1LjAwNzkgMTE2LjM2OCA4NS40Njg0IDExNy44MTZDODUuOTk0NyAxMTkuMjYzIDg2LjY1MjYgMTIwLjg0MiA4Ny41NzM3IDEyMi41NTNDODcuOTAyNiAxMjMuMDc5IDg4LjAzNDIgMTIzLjYwNSA4OC4wMzQyIDEyNC4wNjZDODguMDM0MiAxMjQuNzI0IDg3LjYzOTUgMTI1LjM4MiA4Ni43ODQyIDEyNi4wMzlMODIuNjM5NSAxMjguODAzQzgyLjA0NzQgMTI5LjE5NyA4MS40NTUzIDEyOS4zOTUgODAuOTI5IDEyOS4zOTVDODAuMjcxMSAxMjkuMzk1IDc5LjYxMzIgMTI5LjA2NiA3OC45NTUzIDEyOC40NzRDNzguMDM0MiAxMjcuNDg3IDc3LjI0NDcgMTI2LjQzNCA3Ni41ODY5IDEyNS4zODJDNzUuOTI5IDEyNC4yNjMgNzUuMjcxMSAxMjMuMDEzIDc0LjU0NzQgMTIxLjVDNjkuNDE1OCAxMjcuNTUzIDYyLjk2ODQgMTMwLjU3OSA1NS4yMDUzIDEzMC41NzlDNDkuNjc5IDEzMC41NzkgNDUuMjcxMSAxMjkgNDIuMDQ3NCAxMjUuODQyQzM4LjgyMzcgMTIyLjY4NCAzNy4xNzkgMTE4LjQ3NCAzNy4xNzkgMTEzLjIxMUMzNy4xNzkgMTA3LjYxOCAzOS4xNTI2IDEwMy4wNzkgNDMuMTY1OCA5OS42NTc5QzQ3LjE3OSA5Ni4yMzY4IDUyLjUwNzkgOTQuNTI2MyA1OS4yODQyIDk0LjUyNjNDNjEuNTIxMSA5NC41MjYzIDYzLjgyMzcgOTQuNzIzNyA2Ni4yNTc5IDk1LjA1MjZDNjguNjkyMSA5NS4zODE2IDcxLjE5MjEgOTUuOTA3OSA3My44MjM3IDk2LjVWOTEuNjk3NEM3My44MjM3IDg2LjY5NzQgNzIuNzcxMSA4My4yMTA1IDcwLjczMTYgODEuMTcxMUM2OC42MjYzIDc5LjEzMTYgNjUuMDczNyA3OC4xNDQ3IDYwLjAwNzkgNzguMTQ0N0M1Ny43MDUzIDc4LjE0NDcgNTUuMzM2OCA3OC40MDc5IDUyLjkwMjYgNzlDNTAuNDY4NCA3OS41OTIxIDQ4LjEgODAuMzE1OCA0NS43OTc0IDgxLjIzNjhDNDQuNzQ0NyA4MS42OTc0IDQzLjk1NTMgODEuOTYwNSA0My40OTQ3IDgyLjA5MjFDNDMuMDM0MiA4Mi4yMjM3IDQyLjcwNTMgODIuMjg5NSA0Mi40NDIxIDgyLjI4OTVDNDEuNTIxMSA4Mi4yODk1IDQxLjA2MDUgODEuNjMxNiA0MS4wNjA1IDgwLjI1Vjc3LjAyNjNDNDEuMDYwNSA3NS45NzM3IDQxLjE5MjEgNzUuMTg0MiA0MS41MjExIDc0LjcyMzdDNDEuODUgNzQuMjYzMiA0Mi40NDIxIDczLjgwMjYgNDMuMzYzMiA3My4zNDIxQzQ1LjY2NTggNzIuMTU3OSA0OC40MjkgNzEuMTcxMSA1MS42NTI2IDcwLjM4MTZDNTQuODc2MyA2OS41MjYzIDU4LjI5NzQgNjkuMTMxNiA2MS45MTU4IDY5LjEzMTZDNjkuNzQ0NyA2OS4xMzE2IDc1LjQ2ODQgNzAuOTA3OSA3OS4xNTI2IDc0LjQ2MDVDODIuNzcxMSA3OC4wMTMyIDg0LjYxMzIgODMuNDA3OSA4NC42MTMyIDkwLjY0NDdWMTExLjk2MUg4NC43NDQ3Wk01OC4wMzQyIDEyMS45NjFDNjAuMjA1MyAxMjEuOTYxIDYyLjQ0MjEgMTIxLjU2NiA2NC44MTA1IDEyMC43NzZDNjcuMTc5IDExOS45ODcgNjkuMjg0MiAxMTguNTM5IDcxLjA2MDUgMTE2LjU2NkM3Mi4xMTMyIDExNS4zMTYgNzIuOTAyNiAxMTMuOTM0IDczLjI5NzQgMTEyLjM1NUM3My42OTIxIDExMC43NzYgNzMuOTU1MyAxMDguODY4IDczLjk1NTMgMTA2LjYzMlYxMDMuODY4QzcyLjA0NzQgMTAzLjQwOCA3MC4wMDc5IDEwMy4wMTMgNjcuOTAyNiAxMDIuNzVDNjUuNzk3NCAxMDIuNDg3IDYzLjc1NzkgMTAyLjM1NSA2MS43MTg0IDEwMi4zNTVDNTcuMzEwNSAxMDIuMzU1IDU0LjA4NjggMTAzLjIxMSA1MS45MTU4IDEwNC45ODdDNDkuNzQ0NyAxMDYuNzYzIDQ4LjY5MjEgMTA5LjI2MyA0OC42OTIxIDExMi41NTNDNDguNjkyMSAxMTUuNjQ1IDQ5LjQ4MTYgMTE3Ljk0NyA1MS4xMjYzIDExOS41MjZDNTIuNzA1MyAxMjEuMTcxIDU1LjAwNzkgMTIxLjk2MSA1OC4wMzQyIDEyMS45NjFaTTExMC44NjMgMTI5LjA2NkMxMDkuNjc5IDEyOS4wNjYgMTA4Ljg4OSAxMjguODY4IDEwOC4zNjMgMTI4LjQwOEMxMDcuODM3IDEyOC4wMTMgMTA3LjM3NiAxMjcuMDkyIDEwNi45ODIgMTI1Ljg0Mkw5MS41MjExIDc0Ljk4NjhDOTEuMTI2MyA3My42NzExIDkwLjkyOSA3Mi44MTU4IDkwLjkyOSA3Mi4zNTUzQzkwLjkyOSA3MS4zMDI2IDkxLjQ1NTMgNzAuNzEwNSA5Mi41MDc5IDcwLjcxMDVIOTguOTU1M0MxMDAuMjA1IDcwLjcxMDUgMTAxLjA2MSA3MC45MDc5IDEwMS41MjEgNzEuMzY4NEMxMDIuMDQ3IDcxLjc2MzIgMTAyLjQ0MiA3Mi42ODQyIDEwMi44MzcgNzMuOTM0MkwxMTMuODg5IDExNy40ODdMMTI0LjE1MyA3My45MzQyQzEyNC40ODIgNzIuNjE4NCAxMjQuODc2IDcxLjc2MzIgMTI1LjQwMyA3MS4zNjg0QzEyNS45MjkgNzAuOTczNyAxMjYuODUgNzAuNzEwNSAxMjguMDM0IDcwLjcxMDVIMTMzLjI5N0MxMzQuNTQ3IDcwLjcxMDUgMTM1LjQwMyA3MC45MDc5IDEzNS45MjkgNzEuMzY4NEMxMzYuNDU1IDcxLjc2MzIgMTM2LjkxNiA3Mi42ODQyIDEzNy4xNzkgNzMuOTM0MkwxNDcuNTc0IDExOC4wMTNMMTU4Ljk1NSA3My45MzQyQzE1OS4zNSA3Mi42MTg0IDE1OS44MTEgNzEuNzYzMiAxNjAuMjcxIDcxLjM2ODRDMTYwLjc5NyA3MC45NzM3IDE2MS42NTMgNzAuNzEwNSAxNjIuODM3IDcwLjcxMDVIMTY4Ljk1NUMxNzAuMDA4IDcwLjcxMDUgMTcwLjYgNzEuMjM2OCAxNzAuNiA3Mi4zNTUzQzE3MC42IDcyLjY4NDIgMTcwLjUzNCA3My4wMTMyIDE3MC40NjggNzMuNDA3OUMxNzAuNDAzIDczLjgwMjYgMTcwLjI3MSA3NC4zMjg5IDE3MC4wMDggNzUuMDUyNkwxNTQuMTUzIDEyNS45MDhDMTUzLjc1OCAxMjcuMjI0IDE1My4yOTcgMTI4LjA3OSAxNTIuNzcxIDEyOC40NzRDMTUyLjI0NSAxMjguODY4IDE1MS4zODkgMTI5LjEzMiAxNTAuMjcxIDEyOS4xMzJIMTQ0LjYxM0MxNDMuMzYzIDEyOS4xMzIgMTQyLjUwOCAxMjguOTM0IDE0MS45ODIgMTI4LjQ3NEMxNDEuNDU1IDEyOC4wMTMgMTQwLjk5NSAxMjcuMTU4IDE0MC43MzIgMTI1Ljg0MkwxMzAuNTM0IDgzLjQwNzlMMTIwLjQwMyAxMjUuNzc2QzEyMC4wNzQgMTI3LjA5MiAxMTkuNjc5IDEyNy45NDcgMTE5LjE1MyAxMjguNDA4QzExOC42MjYgMTI4Ljg2OCAxMTcuNzA1IDEyOS4wNjYgMTE2LjUyMSAxMjkuMDY2SDExMC44NjNaTTE5NS40MDMgMTMwLjg0MkMxOTEuOTgyIDEzMC44NDIgMTg4LjU2MSAxMzAuNDQ3IDE4NS4yNzEgMTI5LjY1OEMxODEuOTgyIDEyOC44NjggMTc5LjQxNiAxMjguMDEzIDE3Ny43MDUgMTI3LjAyNkMxNzYuNjUzIDEyNi40MzQgMTc1LjkyOSAxMjUuNzc2IDE3NS42NjYgMTI1LjE4NEMxNzUuNDAzIDEyNC41OTIgMTc1LjI3MSAxMjMuOTM0IDE3NS4yNzEgMTIzLjM0MlYxMTkuOTg3QzE3NS4yNzEgMTE4LjYwNSAxNzUuNzk3IDExNy45NDcgMTc2Ljc4NCAxMTcuOTQ3QzE3Ny4xNzkgMTE3Ljk0NyAxNzcuNTc0IDExOC4wMTMgMTc3Ljk2OCAxMTguMTQ1QzE3OC4zNjMgMTE4LjI3NiAxNzguOTU1IDExOC41MzkgMTc5LjYxMyAxMTguODAzQzE4MS44NSAxMTkuNzg5IDE4NC4yODQgMTIwLjU3OSAxODYuODUgMTIxLjEwNUMxODkuNDgyIDEyMS42MzIgMTkyLjA0NyAxMjEuODk1IDE5NC42NzkgMTIxLjg5NUMxOTguODI0IDEyMS44OTUgMjAyLjA0NyAxMjEuMTcxIDIwNC4yODQgMTE5LjcyNEMyMDYuNTIxIDExOC4yNzYgMjA3LjcwNSAxMTYuMTcxIDIwNy43MDUgMTEzLjQ3NEMyMDcuNzA1IDExMS42MzIgMjA3LjExMyAxMTAuMTE4IDIwNS45MjkgMTA4Ljg2OEMyMDQuNzQ1IDEwNy42MTggMjAyLjUwOCAxMDYuNSAxOTkuMjg0IDEwNS40NDdMMTg5Ljc0NSAxMDIuNDg3QzE4NC45NDIgMTAwLjk3NCAxODEuMzg5IDk4LjczNjggMTc5LjIxOCA5NS43NzYzQzE3Ny4wNDcgOTIuODgxNiAxNzUuOTI5IDg5LjY1NzkgMTc1LjkyOSA4Ni4yMzY4QzE3NS45MjkgODMuNDczNyAxNzYuNTIxIDgxLjAzOTUgMTc3LjcwNSA3OC45MzQyQzE3OC44ODkgNzYuODI4OSAxODAuNDY4IDc0Ljk4NjggMTgyLjQ0MiA3My41Mzk1QzE4NC40MTYgNzIuMDI2MyAxODYuNjUzIDcwLjkwNzkgMTg5LjI4NCA3MC4xMTg0QzE5MS45MTYgNjkuMzI4OSAxOTQuNjc5IDY5IDE5Ny41NzQgNjlDMTk5LjAyMSA2OSAyMDAuNTM0IDY5LjA2NTggMjAxLjk4MiA2OS4yNjMyQzIwMy40OTUgNjkuNDYwNSAyMDQuODc2IDY5LjcyMzcgMjA2LjI1OCA2OS45ODY4QzIwNy41NzQgNzAuMzE1OCAyMDguODI0IDcwLjY0NDcgMjEwLjAwOCA3MS4wMzk1QzIxMS4xOTIgNzEuNDM0MiAyMTIuMTEzIDcxLjgyODkgMjEyLjc3MSA3Mi4yMjM3QzIxMy42OTIgNzIuNzUgMjE0LjM1IDczLjI3NjMgMjE0Ljc0NSA3My44Njg0QzIxNS4xMzkgNzQuMzk0NyAyMTUuMzM3IDc1LjExODQgMjE1LjMzNyA3Ni4wMzk1Vjc5LjEzMTZDMjE1LjMzNyA4MC41MTMyIDIxNC44MTEgODEuMjM2OCAyMTMuODI0IDgxLjIzNjhDMjEzLjI5NyA4MS4yMzY4IDIxMi40NDIgODAuOTczNyAyMTEuMzI0IDgwLjQ0NzRDMjA3LjU3NCA3OC43MzY4IDIwMy4zNjMgNzcuODgxNiAxOTguNjkyIDc3Ljg4MTZDMTk0Ljk0MiA3Ny44ODE2IDE5MS45ODIgNzguNDczNyAxODkuOTQyIDc5LjcyMzdDMTg3LjkwMyA4MC45NzM3IDE4Ni44NSA4Mi44ODE2IDE4Ni44NSA4NS41Nzg5QzE4Ni44NSA4Ny40MjExIDE4Ny41MDggODkgMTg4LjgyNCA5MC4yNUMxOTAuMTM5IDkxLjUgMTkyLjU3NCA5Mi43NSAxOTYuMDYxIDkzLjg2ODRMMjA1LjQwMyA5Ni44Mjg5QzIxMC4xMzkgOTguMzQyMSAyMTMuNTYxIDEwMC40NDcgMjE1LjYgMTAzLjE0NUMyMTcuNjM5IDEwNS44NDIgMjE4LjYyNiAxMDguOTM0IDIxOC42MjYgMTEyLjM1NUMyMTguNjI2IDExNS4xODQgMjE4LjAzNCAxMTcuNzUgMjE2LjkxNiAxMTkuOTg3QzIxNS43MzIgMTIyLjIyNCAyMTQuMTUzIDEyNC4xOTcgMjEyLjExMyAxMjUuNzc2QzIxMC4wNzQgMTI3LjQyMSAyMDcuNjM5IDEyOC42MDUgMjA0LjgxMSAxMjkuNDYxQzIwMS44NSAxMzAuMzgyIDE5OC43NTggMTMwLjg0MiAxOTUuNDAzIDEzMC44NDJaIiBmaWxsPSIjZmZmIi8+PHBhdGggY2xpcC1ydWxlPSJldmVub2RkIiBkPSJNMjA3LjgzNyAxNjIuODE2QzE4Ni4xOTIgMTc4LjgwMyAxNTQuNzQ1IDE4Ny4yOSAxMjcuNzA1IDE4Ny4yOUM4OS44MTA1IDE4Ny4yOSA1NS42NjU4IDE3My4yNzYgMjkuODc2MyAxNDkuOTg3QzI3LjgzNjkgMTQ4LjE0NSAyOS42NzkgMTQ1LjY0NSAzMi4xMTMyIDE0Ny4wOTJDNjAuMDA3OSAxNjMuMjc2IDk0LjQxNTggMTczLjA3OSAxMzAuMDA4IDE3My4wNzlDMTU0LjAyMSAxNzMuMDc5IDE4MC40MDMgMTY4LjA3OSAyMDQuNjc5IDE1Ny44MTZDMjA4LjI5NyAxNTYuMTcxIDIxMS4zODkgMTYwLjE4NCAyMDcuODM3IDE2Mi44MTZaIiBmaWxsLXJ1bGU9ImV2ZW5vZGQiIGZpbGw9IiNGOTAiLz48cGF0aCBjbGlwLXJ1bGU9ImV2ZW5vZGQiIGQ9Ik0yMTYuODUgMTUyLjU1M0MyMTQuMDg3IDE0OSAxOTguNTYxIDE1MC44NDIgMTkxLjUyMSAxNTEuNjk3QzE4OS40MTYgMTUxLjk2MSAxODkuMDg3IDE1MC4xMTggMTkwLjk5NSAxNDguNzM3QzIwMy4zNjMgMTQwLjA1MyAyMjMuNjkyIDE0Mi41NTMgMjI2LjA2MSAxNDUuNDQ3QzIyOC40MjkgMTQ4LjQwOCAyMjUuNDAzIDE2OC43MzcgMjEzLjgyNCAxNzguNDc0QzIxMi4wNDcgMTc5Ljk4NyAyMTAuMzM3IDE3OS4xOTcgMjExLjEyNiAxNzcuMjI0QzIxMy43NTggMTcwLjcxMSAyMTkuNjEzIDE1Ni4wMzkgMjE2Ljg1IDE1Mi41NTNaIiBmaWxsLXJ1bGU9ImV2ZW5vZGQiIGZpbGw9IiNGOTAiLz48L3N2Zz4KICAgICAgICA8L2c+CiAgICAgICAgCiAgPC9zdmc+;fontFamily=Circular Std;fontSize=20;rounded=0;fontColor=#FFFFFF;" parent="1" vertex="1">
                    <mxGeometry x="240" y="280" width="80" height="80" as="geometry"/>
                </mxCell>
                <mxCell id="141" style="edgeStyle=orthogonalEdgeStyle;html=1;entryX=1;entryY=0.5;entryDx=0;entryDy=0;entryPerimeter=0;shape=link;strokeColor=#FFFFFF;rounded=0;sketch=1;curveFitting=1;jiggle=2;" parent="1" source="56" target="58" edge="1">
                    <mxGeometry relative="1" as="geometry"/>
                </mxCell>
                <mxCell id="199" style="edgeStyle=orthogonalEdgeStyle;html=1;strokeWidth=1;strokeColor=#FFFFFF;rounded=0;startArrow=none;sketch=1;curveFitting=1;jiggle=2;" parent="1" edge="1">
                    <mxGeometry relative="1" as="geometry">
                        <mxPoint x="280" y="530" as="sourcePoint"/>
                        <mxPoint x="280" y="570" as="targetPoint"/>
                    </mxGeometry>
                </mxCell>
                <mxCell id="56" value="InstÃ¢ncia EC2" style="points=[[0,0,0],[0.25,0,0],[0.5,0,0],[0.75,0,0],[1,0,0],[0,1,0],[0.25,1,0],[0.5,1,0],[0.75,1,0],[1,1,0],[0,0.25,0],[0,0.5,0],[0,0.75,0],[1,0.25,0],[1,0.5,0],[1,0.75,0]];outlineConnect=0;fontColor=#FFFFFF;gradientColor=#F78E04;gradientDirection=north;fillColor=#D05C17;strokeColor=#ffffff;dashed=0;verticalLabelPosition=bottom;verticalAlign=top;align=center;html=1;fontSize=12;fontStyle=0;aspect=fixed;shape=mxgraph.aws4.resourceIcon;resIcon=mxgraph.aws4.ec2;fontFamily=Circular Std;rounded=0;" parent="1" vertex="1">
                    <mxGeometry x="250" y="439" width="60" height="60" as="geometry"/>
                </mxCell>
                <mxCell id="58" value="&lt;font color=&quot;#ffffff&quot;&gt;Volume EBS&lt;br&gt;&lt;/font&gt;" style="points=[[0,0,0],[0.25,0,0],[0.5,0,0],[0.75,0,0],[1,0,0],[0,1,0],[0.25,1,0],[0.5,1,0],[0.75,1,0],[1,1,0],[0,0.25,0],[0,0.5,0],[0,0.75,0],[1,0.25,0],[1,0.5,0],[1,0.75,0]];outlineConnect=0;fontColor=#232F3E;gradientColor=#60A337;gradientDirection=north;fillColor=#277116;strokeColor=#ffffff;dashed=0;verticalLabelPosition=bottom;verticalAlign=top;align=center;html=1;fontSize=12;fontStyle=0;aspect=fixed;shape=mxgraph.aws4.resourceIcon;resIcon=mxgraph.aws4.elastic_block_store;fontFamily=Circular Std;horizontal=1;container=1;rounded=0;" parent="1" vertex="1">
                    <mxGeometry x="160" y="439" width="60" height="60" as="geometry"/>
                </mxCell>
                <mxCell id="138" style="edgeStyle=none;html=1;entryX=1;entryY=0.5;entryDx=0;entryDy=0;entryPerimeter=0;shape=link;strokeColor=#FFFFFF;rounded=0;sketch=1;curveFitting=1;jiggle=2;" parent="1" source="59" target="56" edge="1">
                    <mxGeometry relative="1" as="geometry">
                        <mxPoint x="326" y="450" as="targetPoint"/>
                    </mxGeometry>
                </mxCell>
                <mxCell id="59" value="&lt;font color=&quot;#ffffff&quot;&gt;VPC&lt;/font&gt;" style="points=[[0,0,0],[0.25,0,0],[0.5,0,0],[0.75,0,0],[1,0,0],[0,1,0],[0.25,1,0],[0.5,1,0],[0.75,1,0],[1,1,0],[0,0.25,0],[0,0.5,0],[0,0.75,0],[1,0.25,0],[1,0.5,0],[1,0.75,0]];outlineConnect=0;fontColor=#232F3E;gradientColor=#945DF2;gradientDirection=north;fillColor=#5A30B5;strokeColor=#ffffff;dashed=0;verticalLabelPosition=bottom;verticalAlign=top;align=center;html=1;fontSize=12;fontStyle=0;aspect=fixed;shape=mxgraph.aws4.resourceIcon;resIcon=mxgraph.aws4.vpc;fontFamily=Circular Std;rounded=0;" parent="1" vertex="1">
                    <mxGeometry x="340" y="439" width="60" height="60" as="geometry"/>
                </mxCell>
                <mxCell id="256" style="edgeStyle=orthogonalEdgeStyle;html=1;fontFamily=Circular Std;fontSize=12;strokeColor=#FFFFFF;fontColor=#FFFFFF;labelBackgroundColor=none;rounded=0;sketch=1;curveFitting=1;jiggle=2;" parent="1" edge="1">
                    <mxGeometry relative="1" as="geometry">
                        <mxPoint x="615" y="560" as="sourcePoint"/>
                        <mxPoint x="650" y="700" as="targetPoint"/>
                        <Array as="points">
                            <mxPoint x="615" y="680"/>
                            <mxPoint x="650" y="680"/>
                        </Array>
                    </mxGeometry>
                </mxCell>
                <mxCell id="94" value="" style="shape=image;verticalLabelPosition=bottom;verticalAlign=top;imageAspect=0;aspect=fixed;image=data:image/svg+xml,PHN2ZyB4bWxuczp4bGluaz0iaHR0cDovL3d3dy53My5vcmcvMTk5OS94bGluayIgeG1sbnM9Imh0dHA6Ly93d3cudzMub3JnLzIwMDAvc3ZnIiB2ZXJzaW9uPSIxLjEiIGZpbGw9Im5vbmUiIHZpZXdCb3g9IjAgMCAyNTYgMjU2IiBoZWlnaHQ9IjQ4IiB3aWR0aD0iNDgiPgogICAgCiAgICAgICAgPGcgdHJhbnNmb3JtPSJ0cmFuc2xhdGUoMCwgMCkiPgogICAgICAgICAgPHN2ZyB4bWxucz0iaHR0cDovL3d3dy53My5vcmcvMjAwMC9zdmciIHZpZXdCb3g9IjAgMCAyNTYgMjU2IiBmaWxsPSJub25lIiBoZWlnaHQ9IjI1NiIgd2lkdGg9IjI1NiI+PHJlY3Qgcng9IjYwIiBmaWxsPSIjMDAwIiBoZWlnaHQ9IjI1NiIgd2lkdGg9IjI1NiIvPjxwYXRoIGQ9Ik05Ni4wMzgzIDE2My44NzZDOTUuMzQyNyAxNjMuODc3IDk0LjY1NSAxNjMuNzI4IDk0LjAyMjUgMTYzLjQzOEM5My40MzQgMTYzLjE3MyA5Mi45MDM1IDE2Mi43OTUgOTIuNDYxMiAxNjIuMzI1QzkyLjAxOSAxNjEuODU1IDkxLjY3MzcgMTYxLjMwMyA5MS40NDUgMTYwLjY5OUM5MS4yMTY0IDE2MC4wOTYgOTEuMTA4OSAxNTkuNDUzIDkxLjEyODggMTU4LjgwOEM5MS4xNDg2IDE1OC4xNjMgOTEuMjk1NCAxNTcuNTI4IDkxLjU2MDcgMTU2Ljk0TDEwNy40NTYgMTIxLjY5M0wxMDcuNTIxIDEyMS41NTVMMTIzLjAxNiA4Ny4xOTA4QzEyMy40NTYgODYuMzg3IDEyNC4xMDUgODUuNzE2NCAxMjQuODk0IDg1LjI0OTJDMTI1LjY4MiA4NC43ODIxIDEyNi41ODIgODQuNTM1NiAxMjcuNDk5IDg0LjUzNTZDMTI4LjQxNiA4NC41MzU2IDEyOS4zMTUgODQuNzgyMSAxMzAuMTA0IDg1LjI0OTJDMTMwLjg5MyA4NS43MTY0IDEzMS41NDIgODYuMzg3IDEzMS45ODIgODcuMTkwOEwxNjMuNDQzIDE1Ni45NEMxNjMuODkyIDE1Ny45MzUgMTYzLjk5NyAxNTkuMDUgMTYzLjc0MiAxNjAuMTExQzE2My40ODcgMTYxLjE3MiAxNjIuODg3IDE2Mi4xMTkgMTYyLjAzNSAxNjIuODAxQzE2MS4xODMgMTYzLjQ4MyAxNjAuMTI4IDE2My44NjIgMTU5LjAzNyAxNjMuODc5QzE1Ny45NDYgMTYzLjg5NiAxNTYuODggMTYzLjU0OSAxNTYuMDA4IDE2Mi44OTNMMTEzLjkyNCAxMzEuMjYzTDEwMC41MjEgMTYwLjk4QzEwMC4xMzIgMTYxLjg0MyA5OS41MDIzIDE2Mi41NzYgOTguNzA3IDE2My4wOUM5Ny45MTE4IDE2My42MDMgOTYuOTg1MSAxNjMuODc2IDk2LjAzODMgMTYzLjg3NlYxNjMuODc2Wk0xMTguMDcxIDEyMi4wNzdMMTQ2LjYwOSAxNDMuNTNMMTI3LjQ5OSAxMDEuMTdMMTE4LjA3MSAxMjIuMDc3WiIgZmlsbD0iI2ZmZiIvPjxwYXRoIGQ9Ik0xMjcuNDk5IDIxNUMxMTAuMTkzIDIxNSA5My4yNzY0IDIwOS44NjggNzguODg3MiAyMDAuMjUzQzY0LjQ5ODEgMTkwLjYzOSA1My4yODMxIDE3Ni45NzMgNDYuNjYwNSAxNjAuOTg1QzQwLjAzNzkgMTQ0Ljk5NiAzOC4zMDUxIDEyNy40MDMgNDEuNjgxMyAxMTAuNDNDNDUuMDU3NSA5My40NTY1IDUzLjM5MDkgNzcuODY1NSA2NS42Mjc5IDY1LjYyODVDNzcuODY0OSA1My4zOTE0IDkzLjQ1NTcgNDUuMDU3OCAxMTAuNDI5IDQxLjY4MTVDMTI3LjQwMiAzOC4zMDUxIDE0NC45OTUgNDAuMDM3OCAxNjAuOTg0IDQ2LjY2MDJDMTc2Ljk3MiA1My4yODI3IDE5MC42MzggNjQuNDk3NSAyMDAuMjUzIDc4Ljg4NjZDMjA5Ljg2OCA5My4yNzU3IDIxNSAxMTAuMTkzIDIxNSAxMjcuNDk4QzIxNC45NzUgMTUwLjY5NyAyMDUuNzQ4IDE3Mi45MzkgMTg5LjM0NCAxODkuMzQzQzE3Mi45NCAyMDUuNzQ3IDE1MC42OTggMjE0Ljk3NCAxMjcuNDk5IDIxNVYyMTVaTTEyNy40OTkgNDkuODMxNUMxMTIuMTM4IDQ5LjgzMTcgOTcuMTIxNCA1NC4zODcgODQuMzQ5IDYyLjkyMTVDNzEuNTc2NSA3MS40NTYgNjEuNjIxNyA4My41ODYzIDU1Ljc0MzMgOTcuNzc4NUM0OS44NjQ5IDExMS45NzEgNDguMzI3IDEyNy41ODcgNTEuMzI0MSAxNDIuNjUzQzU0LjMyMTIgMTU3LjcyIDYxLjcxODYgMTcxLjU1OSA3Mi41ODA5IDE4Mi40MjFDODMuNDQzMiAxOTMuMjgzIDk3LjI4MjYgMjAwLjY4IDExMi4zNDkgMjAzLjY3NkMxMjcuNDE1IDIwNi42NzMgMTQzLjAzMiAyMDUuMTM1IDE1Ny4yMjQgMTk5LjI1NkMxNzEuNDE2IDE5My4zNzcgMTgzLjU0NiAxODMuNDIyIDE5Mi4wOCAxNzAuNjQ5QzIwMC42MTQgMTU3Ljg3NiAyMDUuMTY5IDE0Mi44NiAyMDUuMTY5IDEyNy40OThDMjA1LjE0NSAxMDYuOTA3IDE5Ni45NTUgODcuMTY0OCAxODIuMzk0IDcyLjYwNDNDMTY3LjgzMyA1OC4wNDM5IDE0OC4wOTEgNDkuODU0IDEyNy40OTkgNDkuODMxNVY0OS44MzE1WiIgZmlsbD0iI0UwMCIvPjwvc3ZnPgogICAgICAgIDwvZz4KICAgICAgICAKICA8L3N2Zz4=;fontFamily=Circular Std;fontSize=20;rounded=0;labelBorderColor=none;labelBackgroundColor=none;" parent="1" vertex="1">
                    <mxGeometry x="550" y="420" width="130" height="130" as="geometry"/>
                </mxCell>
                <mxCell id="182" value="" style="edgeStyle=orthogonalEdgeStyle;html=1;strokeWidth=1;startArrow=none;startFill=0;strokeColor=#FFFFFF;rounded=0;fontFamily=Circular Std;fontSize=16;exitX=0.5;exitY=1;exitDx=0;exitDy=0;sketch=1;curveFitting=1;jiggle=2;" parent="1" source="95" edge="1">
                    <mxGeometry x="-0.0055" relative="1" as="geometry">
                        <mxPoint x="280" y="870" as="sourcePoint"/>
                        <mxPoint x="280" y="950" as="targetPoint"/>
                        <mxPoint as="offset"/>
                    </mxGeometry>
                </mxCell>
                <mxCell id="307" value="Deploy" style="edgeLabel;html=1;align=center;verticalAlign=middle;resizable=0;points=[];fontSize=14;fontFamily=Circular Std;fontColor=#FFFFFF;labelBackgroundColor=#121212;" parent="182" vertex="1" connectable="0">
                    <mxGeometry x="0.0837" y="2" relative="1" as="geometry">
                        <mxPoint x="-2" y="-9" as="offset"/>
                    </mxGeometry>
                </mxCell>
                <mxCell id="95" value="&amp;nbsp; &amp;nbsp; &amp;nbsp; &amp;nbsp;Ambiente da instÃ¢ncia EC2" style="points=[[0,0],[0.25,0],[0.5,0],[0.75,0],[1,0],[1,0.25],[1,0.5],[1,0.75],[1,1],[0.75,1],[0.5,1],[0.25,1],[0,1],[0,0.75],[0,0.5],[0,0.25]];outlineConnect=0;gradientColor=none;html=1;whiteSpace=wrap;fontSize=12;fontStyle=1;container=1;pointerEvents=0;collapsible=0;recursiveResize=0;shape=mxgraph.aws4.group;grIcon=mxgraph.aws4.group_ec2_instance_contents;strokeColor=#D86613;fillColor=none;verticalAlign=top;align=left;spacingLeft=30;fontColor=#D86613;dashed=0;fontFamily=Circular Std;rounded=0;horizontal=1;" parent="1" vertex="1">
                    <mxGeometry x="158" y="580" width="240" height="290" as="geometry"/>
                </mxCell>
                <mxCell id="169" style="html=1;entryX=0.5;entryY=0;entryDx=0;entryDy=0;strokeWidth=1;startArrow=none;startFill=0;edgeStyle=orthogonalEdgeStyle;exitX=0.5;exitY=1;exitDx=0;exitDy=0;strokeColor=#FFFFFF;rounded=0;sketch=1;curveFitting=1;jiggle=2;" parent="95" source="108" target="117" edge="1">
                    <mxGeometry relative="1" as="geometry"/>
                </mxCell>
                <mxCell id="170" style="edgeStyle=orthogonalEdgeStyle;html=1;entryX=0.5;entryY=0;entryDx=0;entryDy=0;strokeWidth=1;startArrow=none;startFill=0;exitX=0.5;exitY=1;exitDx=0;exitDy=0;strokeColor=#FFFFFF;rounded=0;sketch=1;curveFitting=1;jiggle=2;" parent="95" source="108" target="119" edge="1">
                    <mxGeometry relative="1" as="geometry"/>
                </mxCell>
                <mxCell id="108" value="" style="shape=image;verticalLabelPosition=bottom;verticalAlign=top;imageAspect=0;image=data:image/svg+xml,PHN2ZyB4bWxuczp4bGluaz0iaHR0cDovL3d3dy53My5vcmcvMTk5OS94bGluayIgeG1sbnM9Imh0dHA6Ly93d3cudzMub3JnLzIwMDAvc3ZnIiB2ZXJzaW9uPSIxLjEiIGZpbGw9Im5vbmUiIHZpZXdCb3g9IjAgMCAyNTYgMjU2IiBoZWlnaHQ9IjQ4IiB3aWR0aD0iNDgiPgogICAgCiAgICAgICAgPGcgdHJhbnNmb3JtPSJ0cmFuc2xhdGUoMCwgMCkiPgogICAgICAgICAgPHN2ZyB4bWxucz0iaHR0cDovL3d3dy53My5vcmcvMjAwMC9zdmciIHZpZXdCb3g9IjAgMCAyNTYgMjU2IiBmaWxsPSJub25lIiBoZWlnaHQ9IjI1NiIgd2lkdGg9IjI1NiI+PHJlY3Qgcng9IjYwIiBmaWxsPSIjMjQyOTM4IiBoZWlnaHQ9IjI1NiIgd2lkdGg9IjI1NiIvPjxwYXRoIGQ9Ik04NS45NDkzIDE5OS45MjZMMTEwLjQ4IDIxMy41NDZIMTQ3LjU3NkwxODIuMjc4IDE4Ny40OTFMMTk3LjgzNCAxNDYuNjMyTDE2MS45MzUgMTAzLjQwNUwxNTEuNzY0IDc5LjEyNjhMMTAyLjEwNCA4MC45MDMyTDEwMi43MDIgOTQuNTIyOEw5My4xMjkxIDExMi4yODdMNzguMTcxMyAxNDEuMzAzTDc1LjE3OTcgMTY1LjU4MUw4NS45NDkzIDE5OS45MjZaIiBmaWxsPSIjRUNFRkYxIi8+PHBhdGggZD0iTTE4Ny4wNjQgMTE0LjY1NkMxNzcuNDkxIDEwMS4wMzYgMTY5LjcxMyA5Mi43NDYzIDE2NS41MjUgNzUuNTczOEMxNjEuMzM3IDU4LjQwMTMgMTY2LjcyMiA2My4xMzg2IDE2My4xMzIgNDguMzM0N0MxNjEuMzM3IDQwLjYzNjcgMTU4LjM0NSAzNS4zMDczIDE1NS4zNTQgMzEuMTYyMkMxNTEuNzY0IDI3LjAxNzEgMTQ3LjU3NiAyNC42NDg1IDE0NS4xODIgMjQuMDU2M0MxMzkuNzk4IDIxLjA5NTYgMTI3LjIzMyAxNi4zNTgzIDExMS42NzcgMjQuNjQ4NUM5NS41MjIzIDMyLjkzODcgOTcuMzE3MiA1MC43MDMzIDEwMC4zMDkgODYuODI0OEMxMDAuMzA5IDg5LjE5MzQgOTkuNzEwNSA5Mi4xNTQyIDk4LjUxMzkgOTQuNTIyOEM5Ni4xMjA2IDk5Ljg1MjIgOTEuOTMyNCAxMDQuNTg5IDg4LjM0MjUgMTA4LjczNUM4NC4xNTQzIDExNC42NTYgNzkuOTY2MSAxMjAuNTc4IDc2Ljk3NDYgMTI3LjA5MUM2OS43OTQ4IDE0MC43MTEgNjMuMjEzNCAxNTcuODgzIDY1LjAwODMgMTY0LjM5N0M2Ny45OTk5IDE2My44MDUgMTA1LjY5NCAyMjAuNjUyIDEwNS42OTQgMjIxLjgzNkMxMDguMDg3IDIyMS4yNDQgMTE4LjI1OCAyMjEuMjQ0IDEyNy4yMzMgMjIxLjI0NEMxMzkuNzk4IDIyMC42NTIgMTQ2Ljk3NyAyMjAuMDYgMTU3LjE0OSAyMjIuNDI4QzE1Ny4xNDkgMjIwLjY1MiAxNTYuNTUgMjE4Ljg3NSAxNTYuNTUgMjE3LjA5OUMxNTYuNTUgMjEzLjU0NiAxNTcuMTQ5IDIxMC41ODUgMTU3Ljc0NyAyMDYuNDRDMTU4LjM0NSAyMDMuNDc5IDE1OC45NDQgMjAwLjUxOSAxNTkuNTQyIDE5Ni45NjZDMTUzLjU1OSAyMDIuMjk1IDE0Mi43ODkgMjA4LjIxNyAxMzIuNjE4IDIwOS45OTNDMTIzLjY0MyAyMTEuNzY5IDEwOC42ODUgMjA4LjgwOSAxMDEuNTA1IDE5OS45MjZDMTAyLjEwNCAxOTkuOTI2IDEwMy4zIDE5OS45MjYgMTAzLjg5OSAxOTkuMzM0QzEwNS42OTQgMTk4Ljc0MiAxMDcuNDg5IDE5OC4xNSAxMDguMDg3IDE5Ni45NjZDMTA5Ljg4MiAxOTQuMDA1IDEwOC42ODUgMTkxLjA0NCAxMDcuNDg5IDE4OS4yNjhDMTA2LjI5MiAxODcuNDkxIDk3LjMxNzMgMTgwLjk3NyA5My4xMjkxIDE3Ny40MjVDODguOTQwOSAxNzMuODcyIDg2LjU0NzYgMTcyLjA5NSA4NC4xNTQ0IDE2OS43MjdDODQuMTU0NCAxNjkuNzI3IDgwLjU2NDUgMTY2LjE3NCA3OS4zNjc4IDE2NC45ODlDNzguMTcxMiAxNjMuODA1IDc3LjU3MjkgMTYyLjYyMSA3Ni45NzQ2IDE2Mi4wMjhDNzUuNzc4IDE1OS4wNjggNzUuMTc5NiAxNTUuNTE1IDc1Ljc3OCAxNTAuNzc4Qzc2LjM3NjMgMTQ0LjI2NCA3OC43Njk1IDEzOC45MzQgODEuNzYxMSAxMzMuMDEzQzgyLjk1NzcgMTMwLjY0NCA4NS45NDkzIDEyNS45MDcgODUuOTQ5MyAxMjUuOTA3Qzg1Ljk0OTMgMTI1LjkwNyA3NS43NzggMTUwLjc3OCA4MS4xNjI4IDE1OC40NzZDODEuMTYyOCAxNTguNDc2IDgxLjc2MTEgMTUwLjc3OCA4NC4xNTQ0IDE0My4wOEM4NS45NDkzIDEzNy43NSA4OC45NDA5IDEzMC4wNTIgOTIuNTMwNyAxMjUuOTA3Qzk2LjEyMDYgMTIxLjc2MiAxMDUuMDk1IDEwNi4zNjYgMTA1LjY5NCA5Ni44OTE0QzEwNS42OTQgOTIuNzQ2MyAxMDYuMjkyIDg4LjYwMTIgMTA2LjI5MiA4NS42NDA1QzEwMy44OTkgODMuMjcxOCAxNDUuNzgxIDc3LjM1MDMgMTQ4LjE3NCA4My44NjRDMTQ4Ljc3MiA4Ni4yMzI2IDE1Ny4xNDkgMTA3LjU1IDE2MS45MzUgMTE4LjgwMUMxNjQuMzI4IDEyNC4xMzEgMTY3LjMyIDEyOC44NjggMTY5LjExNSAxMzQuNzg5QzE3MC45MSAxNDEuMzAzIDE3Mi4xMDYgMTUwLjE4NSAxNzIuMTA2IDE1OS4wNjhDMTcyLjEwNiAxNjAuODQ0IDE3Mi4xMDYgMTYzLjgwNSAxNzEuNTA4IDE2Ni43NjZDMTcyLjcwNSAxNjYuNzY2IDE5Ni4wMzkgMTQxLjg5NSAxNjguNTE3IDEyMS4xN0MxNjguNTE3IDEyMS4xNyAxODUuMjY5IDEyOC44NjggMTg1Ljg2OCAxNDQuMjY0QzE4Ni40NjYgMTU2LjY5OSAxODEuMDgxIDE2Ni43NjYgMTc5Ljg4NSAxNjguNTQyQzE4MC40ODMgMTY4LjU0MiAxOTIuNDQ5IDE3My44NzIgMTkzLjA0NyAxNzMuODcyQzE5NS40NDEgMTczLjg3MiAyMDAuMjI3IDE3Mi4wOTUgMjAwLjIyNyAxNzIuMDk1QzIwMC44MjYgMTcwLjMxOSAyMDIuNjIgMTY1LjU4MSAyMDIuNjIgMTYzLjgwNUMyMDYuODA5IDE1MC4xODUgMTk2LjYzNyAxMjguMjc2IDE4Ny4wNjQgMTE0LjY1NlYxMTQuNjU2WiIgZmlsbD0iIzI2MzIzOCIvPjxwYXRoIGQ9Ik0xMTEuMDc4IDc1LjU3MzhDMTE1LjM3NCA3NS41NzM4IDExOC44NTYgNzAuMjcxNCAxMTguODU2IDYzLjczMDdDMTE4Ljg1NiA1Ny4xODk5IDExNS4zNzQgNTEuODg3NiAxMTEuMDc4IDUxLjg4NzZDMTA2Ljc4MyA1MS44ODc2IDEwMy4zIDU3LjE4OTkgMTAzLjMgNjMuNzMwN0MxMDMuMyA3MC4yNzE0IDEwNi43ODMgNzUuNTczOCAxMTEuMDc4IDc1LjU3MzhaIiBmaWxsPSIjRUNFRkYxIi8+PHBhdGggZD0iTTEzOC4wMDIgNzYuNzU4MUMxNDMuNjIgNzYuNzU4MSAxNDguMTc0IDcwLjY2MDQgMTQ4LjE3NCA2My4xMzg2QzE0OC4xNzQgNTUuNjE2NyAxNDMuNjIgNDkuNTE5IDEzOC4wMDIgNDkuNTE5QzEzMi4zODUgNDkuNTE5IDEyNy44MzEgNTUuNjE2NyAxMjcuODMxIDYzLjEzODZDMTI3LjgzMSA3MC42NjA0IDEzMi4zODUgNzYuNzU4MSAxMzguMDAyIDc2Ljc1ODFaIiBmaWxsPSIjRUNFRkYxIi8+PHBhdGggZD0iTTExNS40MjQgNjQuNTQxMUMxMTQuOTI3IDYwLjY0NzYgMTEyLjY2MyA1Ny43MjQxIDExMC4zNjggNTguMDExMUMxMDguMDc0IDU4LjI5ODIgMTA2LjYxNiA2MS42ODcyIDEwNy4xMTQgNjUuNTgwN0MxMDcuNjExIDY5LjQ3NDEgMTA5Ljg3NCA3Mi4zOTc3IDExMi4xNjkgNzIuMTEwNkMxMTQuNDY0IDcxLjgyMzUgMTE1LjkyMSA2OC40MzQ1IDExNS40MjQgNjQuNTQxMVoiIGZpbGw9IiMyMTIxMjEiLz48cGF0aCBkPSJNMTM3LjQwNCA3My4yMDUyQzE0MC43MDkgNzMuMjA1MiAxNDMuMzg3IDY5Ljc1ODcgMTQzLjM4NyA2NS41MDcyQzE0My4zODcgNjEuMjU1NyAxNDAuNzA5IDU3LjgwOTEgMTM3LjQwNCA1Ny44MDkxQzEzNC4xIDU3LjgwOTEgMTMxLjQyMSA2MS4yNTU3IDEzMS40MjEgNjUuNTA3MkMxMzEuNDIxIDY5Ljc1ODcgMTM0LjEgNzMuMjA1MiAxMzcuNDA0IDczLjIwNTJaIiBmaWxsPSIjMjEyMTIxIi8+PHBhdGggZD0iTTIxNi45OCAxOTUuNzgxQzIxNC41ODcgMTk0LjU5NyAyMTAuMzk4IDE5Mi44MiAyMDYuODA4IDE4Ny40OTFDMjA1LjAxNCAxODQuNTMgMjA1LjYxMiAxNzYuMjQgMjAyLjYyIDE3Mi42ODdDMjAwLjgyNSAxNzAuMzE5IDE5OC40MzIgMTcxLjUwMyAxOTcuODM0IDE3MS41MDNDMTkyLjQ0OSAxNzIuNjg3IDE3OS44ODQgMTgwLjk3NyAxNzEuNTA4IDE3MS41MDNDMTcwLjMxMSAxNzAuMzE5IDE2OC41MTYgMTY4LjU0MiAxNjUuNTI1IDE2OC41NDJDMTYyLjUzMyAxNjguNTQyIDE2MS4zMzcgMTY5LjcyNiAxNjAuMTQgMTcyLjA5NUMxNTguOTQzIDE3NC40NjQgMTU4Ljk0MyAxNzYuMjQgMTU4Ljk0MyAxODIuMTYyQzE1OC45NDMgMTg2Ljg5OSAxNTguOTQzIDE5Mi4yMjggMTU4LjM0NSAxOTYuMzczQzE1Ny4xNDggMjA2LjQ0IDE1NS4zNTQgMjEyLjM2MiAxNTUuMzU0IDIxOC4yODNDMTU1LjM1NCAyMjQuNzk3IDE1Ny4xNDggMjI4Ljk0MiAxNTkuNTQyIDIzMC43MThDMTYxLjMzNyAyMzIuNDk1IDE2NC4zMjggMjMzLjY3OSAxNzAuOTEgMjMzLjY3OUMxNzcuNDkxIDIzMy42NzkgMTgxLjY3OSAyMzEuMzExIDE4NS44NjggMjI3LjE2NUMxODguODU5IDIyNC4yMDUgMTkxLjI1MiAyMjMuMDIgMTk5LjYyOSAyMTcuMDk5QzIwNi4yMSAyMTIuOTU0IDIxNi4zODIgMjA3LjYyNCAyMTguMTc2IDIwNS44NDhDMjE5LjM3MyAyMDQuNjY0IDIyMS4xNjggMjA0LjA3MSAyMjEuMTY4IDIwMC41MThDMjIxLjE2OCAxOTcuNTU4IDIxOC43NzUgMTk2LjM3MyAyMTYuOTggMTk1Ljc4MVYxOTUuNzgxWiIgZmlsbD0iI0ZGQzEwNyIvPjxwYXRoIGQ9Ik05Ni43MTg5IDE5Ny41NThDOTAuNzM1NyAxODguMDgzIDkwLjEzNzQgMTg2LjMwNyA4NS45NDkyIDE4MC4zODVDODIuMzU5MyAxNzQuNDY0IDc0LjU4MTMgMTYzLjIxMyA2OS43OTQ4IDE2My4yMTNDNjYuMjA0OSAxNjMuMjEzIDY0LjQwOTkgMTY0Ljk4OSA2Mi4wMTY3IDE2Ny4zNThDNTkuNjIzNCAxNjkuNzI2IDU3LjIzMDIgMTc1LjA1NiA1My4wNDIgMTc4LjAxN0M0OS40NTIxIDE4MC45NzcgMzkuMjgwOCAxODAuMzg1IDM2Ljg4NzUgMTgzLjkzOEMzNC40OTQyIDE4Ny40OTEgMzkuMjgwOCAxOTIuODIxIDM5LjI4MDggMjAxLjcwM0MzOS4yODA4IDIwNS4yNTYgMzYuMjg5MiAyMDcuNjI0IDM1LjY5MDkgMjA5Ljk5M0MzNS4wOTI2IDIxMi45NTQgMzQuNDk0MiAyMTQuNzMgMzUuNjkwOSAyMTcuMDk5QzM4LjA4NDEgMjIwLjY1MiA0MS4wNzU3IDIyMS44MzYgNjEuNDE4NCAyMjUuOTgxQzcyLjE4OCAyMjguMzUgODIuMzU5MyAyMzQuMjcxIDg4Ljk0MDggMjM0Ljg2NEM5NS41MjIyIDIzNS40NTYgMTA2Ljg5IDIzNC44NjQgMTA2Ljg5IDIxOC44NzVDMTA3LjQ4OSAyMDkuNDAxIDEwMi4xMDQgMjA3LjAzMiA5Ni43MTg5IDE5Ny41NThaIiBmaWxsPSIjRkZDMTA3Ii8+PHBhdGggZD0iTTEwOC4wODcgOTAuMzc3N0MxMDQuNDk3IDg4LjAwOTEgMTAxLjUwNSA4NS42NDA0IDEwMS41MDUgODIuMDg3NUMxMDEuNTA1IDc4LjUzNDYgMTAzLjg5OSA3Ny4zNTAzIDEwNy40ODkgNzQuMzg5NUMxMDguMDg3IDczLjc5NzMgMTE0LjY2OCA2Ny44NzU4IDEyMS4yNSA2Ny44NzU4QzEyNy44MzEgNjcuODc1OCAxMzUuNjA5IDcyLjAyMDkgMTM4LjYwMSA3My4yMDUyQzE0My45ODYgNzQuMzg5NSAxNDkuMzcgNzUuNTczOCAxNDguNzcyIDc5LjcxODlDMTQ4LjE3NCA4NS42NDA0IDE0Ny41NzYgODYuODI0OCAxNDEuNTkyIDg5Ljc4NTVDMTM3LjQwNCA5MC45Njk4IDEyOS42MjYgOTcuNDgzNSAxMjQuMjQxIDk3LjQ4MzVDMTIxLjg0OCA5Ny40ODM1IDExOC4yNTggOTcuNDgzNSAxMTUuODY1IDk2Ljg5MTRDMTE0LjA3IDk2LjI5OTIgMTExLjA3OCA5My4zMzg1IDEwOC4wODcgOTAuMzc3N1Y5MC4zNzc3WiIgZmlsbD0iI0ZGQzEwNyIvPjxwYXRoIGQ9Ik0xMDYuODkgODUuNjQwNUMxMDguMDg3IDg2LjgyNDggMTA5Ljg4MiA4OC4wMDkxIDExMS42NzcgODguNjAxMkMxMTIuODczIDg5LjE5MzQgMTE0LjY2OCA4OS43ODU2IDExNC42NjggODkuNzg1NkMxMTcuMDYyIDg5Ljc4NTYgMTE4Ljg1NyA4OS43ODU2IDEyMC4wNTMgODkuNzg1NkMxMjMuMDQ1IDg5Ljc4NTYgMTI3LjIzMyA4OC42MDEzIDEzMS40MjEgODYuMjMyNkMxMzUuNjA5IDg0LjQ1NjIgMTM2LjIwOCA4My4yNzE4IDEzOS4xOTkgODIuMDg3NUMxNDIuMTkxIDgwLjMxMTEgMTQ1LjE4MiA3OC41MzQ2IDE0My45ODYgNzcuOTQyNUMxNDIuNzg5IDc3LjM1MDMgMTQxLjU5MiA3Ny45NDI1IDEzNy40MDQgODAuMzExMUMxMzMuODE0IDgyLjY3OTcgMTMwLjgyMyA4My44NjQgMTI3LjIzMyA4NS42NDA1QzEyNS40MzggODYuMjMyNiAxMjMuMDQ1IDg3LjQxNjkgMTIxLjI1IDg3LjQxNjlDMTE5LjQ1NSA4Ny40MTY5IDExNy42NiA4Ny40MTY5IDExNS44NjUgODcuNDE2OUMxMTQuMDcgODcuNDE2OSAxMTIuODczIDg2LjgyNDggMTExLjA3OCA4Ni4yMzI2QzEwOS44ODIgODUuNjQwNSAxMDkuMjgzIDg1LjA0ODMgMTA4LjY4NSA4NS4wNDgzQzEwNy40ODkgODQuNDU2MiAxMDUuMDk1IDgyLjA4NzUgMTAzLjg5OSA4MS40OTU0QzEwMy44OTkgODEuNDk1NCAxMDIuNzAyIDgxLjQ5NTQgMTAzLjMgODIuMDg3NUMxMDUuMDk1IDgzLjg2NCAxMDUuNjk0IDg0LjQ1NjIgMTA2Ljg5IDg1LjY0MDVaIiBmaWxsPSIjNjM0NzAzIi8+PHBhdGggZD0iTTEyNC44NCA3Mi42MTNDMTI1LjQzOCA3My43OTczIDEyNi42MzUgNzMuNzk3MyAxMjcuMjMzIDc0LjM4OTVDMTI3LjgzMSA3NC45ODE2IDEyOC40MjkgNzQuOTgxNiAxMjguNDI5IDc0Ljk4MTZDMTI5LjAyOCA3NC4zODk1IDEyOC40MjkgNzMuMjA1MiAxMjcuODMxIDczLjIwNTJDMTI3LjgzMSA3Mi4wMjA5IDEyNC44NCA3Mi4wMjA5IDEyNC44NCA3Mi42MTNWNzIuNjEzWiIgZmlsbD0iIzYzNDcwMyIvPjxwYXRoIGQ9Ik0xMTUuMjY3IDczLjc5NzNDMTE1LjI2NyA3NC4zODk1IDExNi40NjMgNzQuOTgxNiAxMTYuNDYzIDc0LjM4OTVDMTE3LjA2MiA3My43OTczIDExNy42NiA3My4yMDUyIDExOC4yNTggNzMuMjA1MkMxMTkuNDU1IDcyLjYxMyAxMTguODU2IDcyLjAyMDkgMTE3LjA2MiA3Mi4wMjA5QzExNS44NjUgNzIuNjEzIDExNS44NjUgNzMuMjA1MiAxMTUuMjY3IDczLjc5NzNWNzMuNzk3M1oiIGZpbGw9IiM2MzQ3MDMiLz48cGF0aCBkPSJNMTczLjMwMyAxNzguNjA5QzE3My4zMDMgMTc5LjIwMSAxNzMuMzAzIDE3OS43OTMgMTczLjMwMyAxODAuMzg1QzE3NC41IDE4Mi43NTQgMTc3LjQ5MSAxODMuMzQ2IDE3OS44ODQgMTgzLjM0NkMxODMuNDc0IDE4My4zNDYgMTg3LjA2NCAxODAuOTc3IDE4OC44NTkgMTc4LjYwOUMxODguODU5IDE3OC4wMTcgMTg5LjQ1NyAxNzcuNDI0IDE5MC4wNTYgMTc2LjgzMkMxOTEuMjUyIDE3NS4wNTYgMTkxLjg1MSAxNzMuODcyIDE5Mi40NDkgMTczLjI3OUMxOTIuNDQ5IDE3My4yNzkgMTkxLjg1MSAxNzIuNjg3IDE5MS44NTEgMTcyLjA5NUMxOTEuMjUyIDE3MC45MTEgMTg5LjQ1NyAxNjkuNzI2IDE4Ny4wNjQgMTY5LjEzNEMxODUuMjY5IDE2OC41NDIgMTgyLjI3OCAxNjcuOTUgMTgxLjA4MSAxNjcuOTVDMTc1LjY5NiAxNjcuMzU4IDE3Mi43MDUgMTY5LjEzNCAxNzAuOTEgMTcwLjkxMUMxNzAuOTEgMTcwLjkxMSAxNzEuNTA4IDE3MC45MTEgMTcxLjUwOCAxNzEuNTAzQzE3Mi43MDUgMTcyLjY4NyAxNzMuMzAzIDE3My44NzIgMTczLjMwMyAxNzUuNjQ4QzE3My45MDEgMTc2LjgzMiAxNzMuMzAzIDE3Ny40MjQgMTczLjMwMyAxNzguNjA5VjE3OC42MDlaIiBmaWxsPSIjNDU1QTY0Ii8+PC9zdmc+CiAgICAgICAgPC9nPgogICAgICAgIAogIDwvc3ZnPg==;labelBackgroundColor=none;labelBorderColor=none;rounded=0;" parent="95" vertex="1">
                    <mxGeometry x="100" y="30" width="50" height="50" as="geometry"/>
                </mxCell>
                <mxCell id="291" style="edgeStyle=none;html=1;fontFamily=Circular Std;fontColor=default;labelBackgroundColor=none;strokeColor=#FFFFFF;sketch=1;curveFitting=1;jiggle=2;" parent="95" edge="1">
                    <mxGeometry relative="1" as="geometry">
                        <mxPoint x="125" y="160" as="sourcePoint"/>
                        <mxPoint x="125" y="200" as="targetPoint"/>
                    </mxGeometry>
                </mxCell>
                <mxCell id="308" style="edgeStyle=orthogonalEdgeStyle;html=1;entryX=1;entryY=0.5;entryDx=0;entryDy=0;labelBackgroundColor=none;strokeColor=#FFFFFF;strokeWidth=1;fontFamily=Circular Std;fontSize=14;fontColor=#FFFFFF;shape=link;sketch=1;curveFitting=1;jiggle=2;" parent="95" source="119" target="117" edge="1">
                    <mxGeometry relative="1" as="geometry"/>
                </mxCell>
                <mxCell id="119" value="Django" style="shape=image;verticalLabelPosition=bottom;verticalAlign=top;imageAspect=0;image=data:image/svg+xml,PHN2ZyB4bWxuczp4bGluaz0iaHR0cDovL3d3dy53My5vcmcvMTk5OS94bGluayIgeG1sbnM9Imh0dHA6Ly93d3cudzMub3JnLzIwMDAvc3ZnIiB2ZXJzaW9uPSIxLjEiIGZpbGw9Im5vbmUiIHZpZXdCb3g9IjAgMCAyNTYgMjU2IiBoZWlnaHQ9IjQ4IiB3aWR0aD0iNDgiPgogICAgCiAgICAgICAgPGcgdHJhbnNmb3JtPSJ0cmFuc2xhdGUoMCwgMCkiPgogICAgICAgICAgPHN2ZyB4bWxucz0iaHR0cDovL3d3dy53My5vcmcvMjAwMC9zdmciIGZpbGw9Im5vbmUiIHZpZXdCb3g9IjAgMCAyNTYgMjU2IiBoZWlnaHQ9IjI1NiIgd2lkdGg9IjI1NiI+CjxyZWN0IGZpbGw9IiMwOTJFMjAiIHJ4PSI2MCIgaGVpZ2h0PSIyNTYiIHdpZHRoPSIyNTYiLz4KPHBhdGggZmlsbD0id2hpdGUiIGQ9Ik0xMTIuNjg5IDUxSDE0MS4zMDRWMTgzLjQ1QzEyNi42MjUgMTg2LjIzNyAxMTUuODQ4IDE4Ny4zNTIgMTA0LjE0MyAxODcuMzUyQzY5LjIwOTMgMTg3LjM1MSA1MSAxNzEuNTU5IDUxIDE0MS4yNzFDNTEgMTEyLjA5OCA3MC4zMjUzIDkzLjE0NzEgMTAwLjI0IDkzLjE0NzFDMTA0Ljg4NSA5My4xNDcxIDEwOC40MTUgOTMuNTE3NSAxMTIuNjg5IDk0LjYzMjNWNTFaTTExMi42ODkgMTE3LjY3MUMxMDkuMzQ1IDExNi41NTggMTA2LjU1OCAxMTYuMTg2IDEwMy4wMjggMTE2LjE4NkM4OC41MzQ2IDExNi4xODYgODAuMTcyNSAxMjUuMTA1IDgwLjE3MjUgMTQwLjcxMkM4MC4xNzI1IDE1NS45NSA4OC4xNjMgMTY0LjMxMSAxMDIuODQyIDE2NC4zMTFDMTA1Ljk5OSAxNjQuMzExIDEwOC42MDIgMTY0LjEyNSAxMTIuNjg5IDE2My41NjlWMTE3LjY3MVoiLz4KPHBhdGggZmlsbD0id2hpdGUiIGQ9Ik0xODYuODI2IDk1LjE4OTNWMTYxLjUyMkMxODYuODI2IDE4NC4zNzggMTg1LjE1NCAxOTUuMzQgMTgwLjEzNyAyMDQuODE3QzE3NS40OTEgMjEzLjkyMyAxNjkuMzU5IDIxOS42ODIgMTU2LjcyNCAyMjZMMTMwLjE1MyAyMTMuMzY0QzE0Mi43ODggMjA3LjQxOSAxNDguOTIgMjAyLjIxOCAxNTIuODIxIDE5NC4yMjVDMTU2LjkxIDE4Ni4wNSAxNTguMjEyIDE3Ni41NzMgMTU4LjIxMiAxNTEuNjc1Vjk1LjE4OTNIMTg2LjgyNlpNMTU4LjIxMiA1MS4xNTE5SDE4Ni44MjZWODAuNTEwMkgxNTguMjEyVjUxLjE1MTlaIi8+Cjwvc3ZnPgoKICAgICAgICA8L2c+CiAgICAgICAgCiAgPC9zdmc+;rounded=0;fontFamily=Circular Std;fontColor=#FFFFFF;" parent="95" vertex="1">
                    <mxGeometry x="150" y="130" width="50" height="50" as="geometry"/>
                </mxCell>
                <mxCell id="117" value="Python" style="shape=image;verticalLabelPosition=bottom;verticalAlign=top;imageAspect=0;image=data:image/svg+xml,PHN2ZyB4bWxuczp4bGluaz0iaHR0cDovL3d3dy53My5vcmcvMTk5OS94bGluayIgeG1sbnM9Imh0dHA6Ly93d3cudzMub3JnLzIwMDAvc3ZnIiB2ZXJzaW9uPSIxLjEiIGZpbGw9Im5vbmUiIHZpZXdCb3g9IjAgMCAyNTYgMjU2IiBoZWlnaHQ9IjQ4IiB3aWR0aD0iNDgiPgogICAgCiAgICAgICAgPGcgdHJhbnNmb3JtPSJ0cmFuc2xhdGUoMCwgMCkiPgogICAgICAgICAgPHN2ZyB4bWxucz0iaHR0cDovL3d3dy53My5vcmcvMjAwMC9zdmciIHZpZXdCb3g9IjAgMCAyNTYgMjU2IiBmaWxsPSJub25lIiBoZWlnaHQ9IjI1NiIgd2lkdGg9IjI1NiI+PHJlY3Qgcng9IjYwIiBmaWxsPSIjMjQyOTM4IiBoZWlnaHQ9IjI1NiIgd2lkdGg9IjI1NiIvPjxwYXRoIGQ9Ik0xMjcuMjc5IDI5Qzc2LjUwNjYgMjkgNzkuNjc3MiA1MS4wMTggNzkuNjc3MiA1MS4wMThMNzkuNzMzOCA3My44Mjg0SDEyOC4xODVWODAuNjc3Mkg2MC40ODkzQzYwLjQ4OTMgODAuNjc3MiAyOCA3Ni45OTI2IDI4IDEyOC4yMjJDMjggMTc5LjQ1MiA1Ni4zNTczIDE3Ny42MzYgNTYuMzU3MyAxNzcuNjM2SDczLjI4MTJWMTUzLjg2M0M3My4yODEyIDE1My44NjMgNzIuMzY5IDEyNS41MDYgMTAxLjE4NiAxMjUuNTA2SDE0OS4yNEMxNDkuMjQgMTI1LjUwNiAxNzYuMjM5IDEyNS45NDIgMTc2LjIzOSA5OS40MTIzVjU1LjU0NjFDMTc2LjIzOSA1NS41NDYxIDE4MC4zMzggMjkgMTI3LjI3OSAyOVpNMTAwLjU2MyA0NC4zMzlDMTA1LjM4NCA0NC4zMzkgMTA5LjI4IDQ4LjIzNTEgMTA5LjI4IDUzLjA1NTZDMTA5LjI4IDU3Ljg3NjEgMTA1LjM4NCA2MS43NzIzIDEwMC41NjMgNjEuNzcyM0M5NS43NDI2IDYxLjc3MjMgOTEuODQ2NSA1Ny44NzYxIDkxLjg0NjUgNTMuMDU1NkM5MS44NDY1IDQ4LjIzNTEgOTUuNzQyNiA0NC4zMzkgMTAwLjU2MyA0NC4zMzlaIiBmaWxsPSJ1cmwoI3BhaW50MF9saW5lYXJfMl80NykiLz48cGF0aCBkPSJNMTI4LjcyMSAyMjcuOTU4QzE3OS40OTMgMjI3Ljk1OCAxNzYuMzIzIDIwNS45NDEgMTc2LjMyMyAyMDUuOTQxTDE3Ni4yNjYgMTgzLjEzSDEyNy44MTVWMTc2LjI4MUgxOTUuNTExQzE5NS41MTEgMTc2LjI4MSAyMjggMTc5Ljk2NiAyMjggMTI4LjczNkMyMjggNzcuNTA2MiAxOTkuNjQzIDc5LjMyMyAxOTkuNjQzIDc5LjMyM0gxODIuNzE5VjEwMy4wOTZDMTgyLjcxOSAxMDMuMDk2IDE4My42MzEgMTMxLjQ1MyAxNTQuODE0IDEzMS40NTNIMTA2Ljc2QzEwNi43NiAxMzEuNDUzIDc5Ljc2MDcgMTMxLjAxNiA3OS43NjA3IDE1Ny41NDZWMjAxLjQxMkM3OS43NjA3IDIwMS40MTIgNzUuNjYxNSAyMjcuOTU4IDEyOC43MjEgMjI3Ljk1OFpNMTU1LjQzNyAyMTIuNjE5QzE1MC42MTYgMjEyLjYxOSAxNDYuNzIgMjA4LjcyMyAxNDYuNzIgMjAzLjkwM0MxNDYuNzIgMTk5LjA4MiAxNTAuNjE2IDE5NS4xODYgMTU1LjQzNyAxOTUuMTg2QzE2MC4yNTcgMTk1LjE4NiAxNjQuMTU0IDE5OS4wODIgMTY0LjE1NCAyMDMuOTAzQzE2NC4xNTQgMjA4LjcyMyAxNjAuMjU3IDIxMi42MTkgMTU1LjQzNyAyMTIuNjE5WiIgZmlsbD0idXJsKCNwYWludDFfbGluZWFyXzJfNDcpIi8+PGRlZnM+PGxpbmVhckdyYWRpZW50IGdyYWRpZW50VW5pdHM9InVzZXJTcGFjZU9uVXNlIiB5Mj0iMTQ1LjAyIiB5MT0iNDYuODk2IiB4Mj0iMTQ2LjMzMyIgeDE9IjQ3LjIyIiBpZD0icGFpbnQwX2xpbmVhcl8yXzQ3Ij48c3RvcCBzdG9wLWNvbG9yPSIjMzg3RUI4Ii8+PHN0b3Agc3RvcC1jb2xvcj0iIzM2Njk5NCIgb2Zmc2V0PSIxIi8+PC9saW5lYXJHcmFkaWVudD48bGluZWFyR3JhZGllbnQgZ3JhZGllbnRVbml0cz0idXNlclNwYWNlT25Vc2UiIHkyPSIyMTAuNTIyIiB5MT0iMTA5LjkwNSIgeDI9IjIxNC40OTIiIHgxPSIxMDguMDU2IiBpZD0icGFpbnQxX2xpbmVhcl8yXzQ3Ij48c3RvcCBzdG9wLWNvbG9yPSIjRkZFMDUyIi8+PHN0b3Agc3RvcC1jb2xvcj0iI0ZGQzMzMSIgb2Zmc2V0PSIxIi8+PC9saW5lYXJHcmFkaWVudD48L2RlZnM+PC9zdmc+CiAgICAgICAgPC9nPgogICAgICAgIAogIDwvc3ZnPg==;rounded=0;fontFamily=Circular Std;fontColor=#FFFFFF;" parent="95" vertex="1">
                    <mxGeometry x="50" y="130" width="50" height="50" as="geometry"/>
                </mxCell>
                <mxCell id="292" value="AplicaÃ§Ã£o Web" style="points=[[0,0,0],[0.25,0,0],[0.5,0,0],[0.75,0,0],[1,0,0],[0,1,0],[0.25,1,0],[0.5,1,0],[0.75,1,0],[1,1,0],[0,0.25,0],[0,0.5,0],[0,0.75,0],[1,0.25,0],[1,0.5,0],[1,0.75,0]];outlineConnect=0;fontColor=#FFFFFF;gradientColor=#4AB29A;gradientDirection=north;fillColor=#116D5B;strokeColor=#ffffff;dashed=0;verticalLabelPosition=bottom;verticalAlign=top;align=center;html=1;fontSize=12;fontStyle=0;aspect=fixed;shape=mxgraph.aws4.resourceIcon;resIcon=mxgraph.aws4.desktop_and_app_streaming;fontFamily=Circular Std;" parent="95" vertex="1">
                    <mxGeometry x="100" y="210" width="50" height="50" as="geometry"/>
                </mxCell>
                <mxCell id="198" value="Internet" style="image;html=1;image=img/lib/clip_art/general/Earth_globe_128x128.png;rounded=0;labelBackgroundColor=none;fontFamily=Circular Std;fontSize=16;fontColor=#FFFFFF;" parent="1" vertex="1">
                    <mxGeometry x="234" y="960" width="91" height="100" as="geometry"/>
                </mxCell>
                <mxCell id="301" style="edgeStyle=orthogonalEdgeStyle;html=1;fontFamily=Circular Std;fontSize=16;fontColor=#FFFFFF;strokeColor=#FFFFFF;sketch=1;curveFitting=1;jiggle=2;" parent="1" edge="1">
                    <mxGeometry relative="1" as="geometry">
                        <mxPoint x="540" y="860" as="targetPoint"/>
                        <mxPoint x="580" y="780" as="sourcePoint"/>
                        <Array as="points">
                            <mxPoint x="580" y="840"/>
                            <mxPoint x="540" y="840"/>
                        </Array>
                    </mxGeometry>
                </mxCell>
                <mxCell id="242" value="Hosts" style="pointerEvents=1;shadow=0;dashed=0;html=1;strokeColor=default;fillColor=#a20025;labelPosition=center;verticalLabelPosition=bottom;verticalAlign=top;align=center;outlineConnect=0;shape=mxgraph.veeam2.file;labelBackgroundColor=none;fillStyle=auto;fontSize=12;fontColor=#ffffff;fontFamily=Circular Std;rounded=0;" parent="1" vertex="1">
                    <mxGeometry x="565" y="710" width="30" height="40" as="geometry"/>
                </mxCell>
                <mxCell id="253" value="Playbook" style="pointerEvents=1;shadow=0;dashed=0;html=1;strokeColor=#6F0000;fillColor=#a20025;labelPosition=center;verticalLabelPosition=bottom;verticalAlign=top;align=center;outlineConnect=0;shape=mxgraph.veeam2.file;labelBackgroundColor=none;fillStyle=auto;fontSize=12;fontColor=#ffffff;fontFamily=Circular Std;rounded=0;" parent="1" vertex="1">
                    <mxGeometry x="635" y="710" width="30" height="40" as="geometry"/>
                </mxCell>
                <mxCell id="271" value="ExecuÃ§Ã£o&lt;br&gt;do roteiro" style="shape=step;perimeter=stepPerimeter;whiteSpace=wrap;html=1;fixedSize=1;shadow=0;dashed=0;fontFamily=Circular Std;fontSize=12;fontColor=#FFFFFF;fillColor=none;direction=west;flipH=0;strokeColor=#FFFFFF;labelBackgroundColor=none;rounded=0;sketch=1;curveFitting=1;jiggle=2;" parent="1" vertex="1">
                    <mxGeometry x="415" y="710" width="120" height="40" as="geometry"/>
                </mxCell>
                <mxCell id="273" value="" style="html=1;aspect=fixed;strokeColor=none;shadow=0;align=center;verticalAlign=top;fillColor=#FFFFFF;shape=mxgraph.gcp2.gear;dashed=0;fontFamily=Circular Std;fontSize=12;fontColor=default;rounded=0;" parent="1" vertex="1">
                    <mxGeometry x="477" y="670" width="20" height="20" as="geometry"/>
                </mxCell>
                <mxCell id="274" value="" style="html=1;aspect=fixed;strokeColor=none;shadow=0;align=center;verticalAlign=top;fillColor=#FFFFFF;shape=mxgraph.gcp2.gear;dashed=0;fontFamily=Circular Std;fontSize=12;fontColor=default;rounded=0;" parent="1" vertex="1">
                    <mxGeometry x="467" y="685" width="15" height="15" as="geometry"/>
                </mxCell>
                <mxCell id="275" value="" style="html=1;aspect=fixed;strokeColor=none;shadow=0;align=center;verticalAlign=top;fillColor=#FFFFFF;shape=mxgraph.gcp2.gear;dashed=0;fontFamily=Circular Std;fontSize=12;fontColor=default;rounded=0;" parent="1" vertex="1">
                    <mxGeometry x="482" y="690" width="10" height="10" as="geometry"/>
                </mxCell>
                <mxCell id="279" value="" style="rounded=0;whiteSpace=wrap;html=1;fontFamily=Circular Std;fontColor=#FFFFFF;fillColor=none;strokeColor=none;" parent="1" vertex="1">
                    <mxGeometry width="120" height="1100" as="geometry"/>
                </mxCell>
                <mxCell id="281" value="" style="rounded=0;whiteSpace=wrap;html=1;fontFamily=Circular Std;fontColor=#FFFFFF;fillColor=none;strokeColor=none;" parent="1" vertex="1">
                    <mxGeometry x="720" width="120" height="1100" as="geometry"/>
                </mxCell>
                <mxCell id="299" value="Terraform" style="text;html=1;align=center;verticalAlign=middle;resizable=0;points=[];autosize=1;strokeColor=none;fillColor=none;fontSize=20;fontFamily=Circular Std;fontColor=#FFFFFF;" parent="1" vertex="1">
                    <mxGeometry x="223" y="23" width="110" height="40" as="geometry"/>
                </mxCell>
                <mxCell id="300" value="Ansible" style="text;html=1;align=center;verticalAlign=middle;resizable=0;points=[];autosize=1;strokeColor=none;fillColor=none;fontSize=20;fontFamily=Circular Std;fontColor=#FFFFFF;" parent="1" vertex="1">
                    <mxGeometry x="570" y="383" width="90" height="40" as="geometry"/>
                </mxCell>
                <mxCell id="302" style="edgeStyle=orthogonalEdgeStyle;html=1;fontFamily=Circular Std;fontSize=16;fontColor=#FFFFFF;strokeColor=#FFFFFF;sketch=1;curveFitting=1;jiggle=2;" parent="1" edge="1">
                    <mxGeometry relative="1" as="geometry">
                        <mxPoint x="700" y="870" as="targetPoint"/>
                        <mxPoint x="649.66" y="780" as="sourcePoint"/>
                        <Array as="points">
                            <mxPoint x="650" y="840"/>
                            <mxPoint x="700" y="840"/>
                        </Array>
                    </mxGeometry>
                </mxCell>
                <mxCell id="303" value="IP PÃºblico&lt;br&gt;&lt;br style=&quot;font-size: 13px;&quot;&gt;UsuÃ¡rio da mÃ¡quina virtual&lt;br&gt;&lt;br style=&quot;font-size: 13px;&quot;&gt;Chave de acesso" style="whiteSpace=wrap;html=1;shape=mxgraph.basic.document;labelBackgroundColor=none;strokeColor=#FFFFFF;fontFamily=Circular Std;fontSize=13;fontColor=#FFFFFF;fillColor=none;horizontal=1;sketch=1;curveFitting=1;jiggle=2;" parent="1" vertex="1">
                    <mxGeometry x="492" y="870" width="108" height="130" as="geometry"/>
                </mxCell>
                <mxCell id="305" value="Tarefas&lt;br&gt;&lt;br&gt;Handlers&lt;br&gt;&lt;br&gt;VariÃ¡veis" style="whiteSpace=wrap;html=1;shape=mxgraph.basic.document;labelBackgroundColor=none;strokeColor=#FFFFFF;fontFamily=Circular Std;fontSize=13;fontColor=#FFFFFF;fillColor=none;horizontal=1;direction=east;sketch=1;curveFitting=1;jiggle=2;" parent="1" vertex="1">
                    <mxGeometry x="660" y="880" width="90" height="110" as="geometry"/>
                </mxCell>
                <mxCell id="311" value="Chave de acesso" style="pointerEvents=1;shadow=0;dashed=0;html=1;strokeColor=none;labelPosition=center;verticalLabelPosition=bottom;verticalAlign=top;outlineConnect=0;align=center;shape=mxgraph.office.security.key_permissions;fillColor=#FFFF33;labelBackgroundColor=none;fontFamily=Circular Std;fontSize=11;fontColor=#FFFFFF;flipH=0;flipV=0;direction=south;" parent="1" vertex="1">
                    <mxGeometry x="468.5" y="780" width="21.5" height="11.5" as="geometry"/>
                </mxCell>
                <mxCell id="316" value="+" style="text;html=1;align=center;verticalAlign=middle;resizable=0;points=[];autosize=1;strokeColor=none;fillColor=none;fontSize=20;fontFamily=Circular Std;fontColor=#FFFFFF;" parent="1" vertex="1">
                    <mxGeometry x="465.25" y="743.5" width="30" height="40" as="geometry"/>
                </mxCell>
                <mxCell id="321" style="edgeStyle=orthogonalEdgeStyle;html=1;exitX=0.586;exitY=1;exitDx=0;exitDy=0;exitPerimeter=0;sketch=1;curveFitting=1;jiggle=2;strokeColor=#FFFFFF;" parent="1" source="319" edge="1">
                    <mxGeometry relative="1" as="geometry">
                        <Array as="points">
                            <mxPoint x="463" y="650"/>
                        </Array>
                        <mxPoint x="410" y="650" as="targetPoint"/>
                    </mxGeometry>
                </mxCell>
                <mxCell id="319" value="" style="pointerEvents=1;shadow=0;dashed=0;html=1;strokeColor=none;fillColor=#363636;labelPosition=center;verticalLabelPosition=bottom;verticalAlign=top;align=center;outlineConnect=0;shape=mxgraph.veeam2.monitoring_console;labelBackgroundColor=#121212;fontFamily=Circular Std;fontSize=14;fontColor=#FFFFFF;labelBorderColor=none;" parent="1" vertex="1">
                    <mxGeometry x="425" y="230" width="64.37" height="60" as="geometry"/>
                </mxCell>
                <mxCell id="323" value="Chave de acesso" style="pointerEvents=1;shadow=0;dashed=0;html=1;strokeColor=none;labelPosition=center;verticalLabelPosition=bottom;verticalAlign=top;outlineConnect=0;align=center;shape=mxgraph.office.security.key_permissions;fillColor=#FFFF33;labelBackgroundColor=none;fontFamily=Circular Std;fontSize=12;fontColor=#FFFFFF;flipH=0;flipV=0;direction=south;" parent="1" vertex="1">
                    <mxGeometry x="600.69" y="290" width="21.5" height="11.5" as="geometry"/>
                </mxCell>
                <mxCell id="337" style="edgeStyle=orthogonalEdgeStyle;sketch=1;html=1;strokeColor=#FFFFFF;labelBackgroundColor=none;" parent="1" edge="1">
                    <mxGeometry relative="1" as="geometry">
                        <mxPoint x="350" y="120" as="targetPoint"/>
                        <mxPoint x="613" y="180" as="sourcePoint"/>
                        <Array as="points">
                            <mxPoint x="613" y="120"/>
                            <mxPoint x="370" y="120"/>
                        </Array>
                    </mxGeometry>
                </mxCell>
                <mxCell id="326" value="MÃ¡quina local" style="points=[];aspect=fixed;html=1;align=center;shadow=0;dashed=0;image;image=img/lib/allied_telesis/computer_and_terminals/Personal_Computer.svg;labelBackgroundColor=none;fontColor=#FFFFFF;fontFamily=Circular Std;" parent="1" vertex="1">
                    <mxGeometry x="594.99" y="185" width="36.89" height="50" as="geometry"/>
                </mxCell>
                <mxCell id="330" style="edgeStyle=orthogonalEdgeStyle;sketch=1;html=1;fontFamily=Circular Std;fontSize=12;fontColor=#FFFFFF;strokeColor=#FFFFFF;" parent="1" edge="1">
                    <mxGeometry relative="1" as="geometry">
                        <mxPoint x="508" y="265" as="targetPoint"/>
                        <mxPoint x="558" y="265" as="sourcePoint"/>
                    </mxGeometry>
                </mxCell>
                <mxCell id="329" value="+" style="text;html=1;align=center;verticalAlign=middle;resizable=0;points=[];autosize=1;strokeColor=none;fillColor=none;fontFamily=Circular Std;fontColor=#FFFFFF;fontSize=32;" parent="1" vertex="1">
                    <mxGeometry x="591.44" y="245" width="40" height="50" as="geometry"/>
                </mxCell>
                <mxCell id="334" value="MonitoraÃ§Ã£o e interaÃ§Ã£o&lt;br&gt;via terminal" style="edgeLabel;html=1;align=center;verticalAlign=middle;resizable=0;points=[];fontSize=14;fontFamily=Circular Std;fontColor=#FFFFFF;labelBackgroundColor=none;" parent="1" vertex="1" connectable="0">
                    <mxGeometry x="478" y="204.003043478261" as="geometry"/>
                </mxCell>
                <mxCell id="341" style="edgeStyle=orthogonalEdgeStyle;html=1;sketch=1;curveFitting=1;jiggle=2;strokeColor=#FFFFFF;" edge="1" parent="1">
                    <mxGeometry relative="1" as="geometry">
                        <Array as="points">
                            <mxPoint x="743" y="210"/>
                            <mxPoint x="743" y="490"/>
                            <mxPoint x="690" y="490"/>
                        </Array>
                        <mxPoint x="640" y="210" as="sourcePoint"/>
                        <mxPoint x="690" y="490" as="targetPoint"/>
                    </mxGeometry>
                </mxCell>
            </root>
        </mxGraphModel>
    </diagram>
</mxfile>